# MagicaVoxel @ Ephtracy

# group
o 

# material
mtllib Skybox.mtl
usemtl palette

# normals
vn -1 0 0
vn 1 0 0
vn 0 0 1
vn 0 0 -1
vn 0 -1 0
vn 0 1 0

# texcoords
vt 0.919922 0.5
vt 0.962891 0.5

# verts
v -2 0 1.9
v -2 0 -2
v -2 4 1.9
v -2 4 -2
v -1.9 0 2
v -1.9 0 1.9
v -1.9 4 2
v -1.9 4 1.9
v -1 2.4 -1.8
v -1 2.4 -1.9
v -1 2.8 -1.8
v -1 2.8 -1.9
v -0.9 2.7 1.9
v -0.9 2.7 1.8
v -0.9 3.3 1.9
v -0.9 3.3 1.8
v -0.8 1.6 -1.8
v -0.8 1.6 -1.9
v -0.8 2.1 -1.8
v -0.8 2.1 -1.9
v -0.7 1.7 1.9
v -0.7 1.7 1.8
v -0.7 2.3 1.9
v -0.7 2.3 1.8
v -0.5 0.8 1.9
v -0.5 0.8 1.8
v -0.5 1 1.9
v -0.5 1 1.8
v -0.5 3.1 -1.8
v -0.5 3.1 -1.9
v -0.5 3.3 -1.8
v -0.5 3.3 -1.9
v 2.38419e-07 2.3 1.9
v 2.38419e-07 2.3 1.8
v 2.38419e-07 2.4 1.9
v 2.38419e-07 2.4 1.8
v 0.1 3.1 -1.8
v 0.1 3.1 -1.9
v 0.1 3.4 -1.8
v 0.1 3.4 -1.9
v 0.4 2.5 1.9
v 0.4 2.5 1.8
v 0.4 3.1 1.9
v 0.4 3.1 1.8
v 0.5 2 -1.8
v 0.5 2 -1.9
v 0.5 2.2 -1.8
v 0.5 2.2 -1.9
v 0.9 1.2 1.9
v 0.9 1.2 1.8
v 0.9 1.4 1.9
v 0.9 1.4 1.8
v 0.9 2.5 -1.8
v 0.9 2.5 -1.9
v 0.9 2.8 -1.8
v 0.9 2.8 -1.9
v 1.8 1.5 -0.3
v 1.8 1.5 -1
v 1.8 1.8 0.6
v 1.8 1.8 0.0999999
v 1.8 2 -0.3
v 1.8 2 -1
v 1.8 2.1 1.5
v 1.8 2.1 0.9
v 1.8 2.2 0.6
v 1.8 2.2 0.0999999
v 1.8 2.6 0.7
v 1.8 2.6 0.4
v 1.8 2.6 0.2
v 1.8 2.6 -0.6
v 1.8 2.7 -0.9
v 1.8 2.7 -1.4
v 1.8 2.8 1.5
v 1.8 2.8 0.9
v 1.8 3 0.7
v 1.8 3 0.4
v 1.8 3 -0.3
v 1.8 3 -0.6
v 1.8 3.2 0.2
v 1.8 3.2 0.0999999
v 1.8 3.2 -0.1
v 1.8 3.2 -0.3
v 1.8 3.2 -0.9
v 1.8 3.2 -1.4
v 1.8 3.3 0.0999999
v 1.8 3.3 -0.1
v 1.9 0.1 1.9
v 1.9 0.1 -1.9
v 1.9 1.5 -0.3
v 1.9 1.5 -1
v 1.9 1.8 0.6
v 1.9 1.8 0.0999999
v 1.9 2 -0.3
v 1.9 2 -1
v 1.9 2.1 1.5
v 1.9 2.1 0.9
v 1.9 2.2 0.6
v 1.9 2.2 0.0999999
v 1.9 2.6 0.7
v 1.9 2.6 0.4
v 1.9 2.6 0.2
v 1.9 2.6 -0.6
v 1.9 2.7 -0.9
v 1.9 2.7 -1.4
v 1.9 2.8 1.5
v 1.9 2.8 0.9
v 1.9 3 0.7
v 1.9 3 0.4
v 1.9 3 -0.3
v 1.9 3 -0.6
v 1.9 3.2 0.2
v 1.9 3.2 0.0999999
v 1.9 3.2 -0.1
v 1.9 3.2 -0.3
v 1.9 3.2 -0.9
v 1.9 3.2 -1.4
v 1.9 3.3 0.0999999
v 1.9 3.3 -0.1
v 1.9 3.9 1.9
v 1.9 3.9 -1.9
v -1.8 0 1.9
v -1.8 0 -1.9
v -1.8 1.6 0.8
v -1.8 1.6 -2.38419e-07
v -1.8 1.9 -0.5
v -1.8 1.9 -0.9
v -1.8 2.2 0.8
v -1.8 2.2 -2.38419e-07
v -1.8 2.2 -0.5
v -1.8 2.2 -0.9
v -1.8 2.3 -0.6
v -1.8 2.3 -1
v -1.8 2.7 -0.6
v -1.8 2.7 -1
v -1.8 2.8 0.9
v -1.8 2.8 0.3
v -1.8 3.2 0.9
v -1.8 3.2 0.3
v -1.8 3.9 1.9
v -1.8 3.9 -1.9
v -1.7 1.6 0.8
v -1.7 1.6 -2.38419e-07
v -1.7 1.9 -0.5
v -1.7 1.9 -0.9
v -1.7 2.2 0.8
v -1.7 2.2 -2.38419e-07
v -1.7 2.2 -0.5
v -1.7 2.2 -0.9
v -1.7 2.8 0.9
v -1.7 2.8 0.3
v -1.7 3.2 0.9
v -1.7 3.2 0.3
v -1.6 2.3 -0.6
v -1.6 2.3 -1
v -1.6 2.7 -0.6
v -1.6 2.7 -1
v -0.3 1.6 -1.8
v -0.3 1.6 -1.9
v -0.3 2.1 -1.8
v -0.3 2.1 -1.9
v -0.3 3.1 -1.8
v -0.3 3.1 -1.9
v -0.3 3.3 -1.8
v -0.3 3.3 -1.9
v -0.0999999 2.7 1.9
v -0.0999999 2.7 1.8
v -0.0999999 3.3 1.9
v -0.0999999 3.3 1.8
v 2.38419e-07 0.8 1.9
v 2.38419e-07 0.8 1.8
v 2.38419e-07 1 1.9
v 2.38419e-07 1 1.8
v 2.38419e-07 1.7 1.9
v 2.38419e-07 1.7 1.8
v 2.38419e-07 1.9 1.9
v 2.38419e-07 1.9 1.8
v 0.1 2.4 -1.8
v 0.1 2.4 -1.9
v 0.1 2.8 -1.8
v 0.1 2.8 -1.9
v 0.7 2 -1.8
v 0.7 2 -1.9
v 0.7 2.2 -1.8
v 0.7 2.2 -1.9
v 0.7 3.1 -1.8
v 0.7 3.1 -1.9
v 0.7 3.4 -1.8
v 0.7 3.4 -1.9
v 0.8 1.9 1.9
v 0.8 1.9 1.8
v 0.8 2.4 1.9
v 0.8 2.4 1.8
v 0.8 2.5 1.9
v 0.8 2.5 1.8
v 0.8 3.1 1.9
v 0.8 3.1 1.8
v 1.1 1.2 1.9
v 1.1 1.2 1.8
v 1.1 1.4 1.9
v 1.1 1.4 1.8
v 1.3 2.5 -1.8
v 1.3 2.5 -1.9
v 1.3 2.8 -1.8
v 1.3 2.8 -1.9
v 2 0 2
v 2 0 1.9
v 2 0 -1.9
v 2 0 -2
v 2 0.1 1.9
v 2 0.1 -1.9
v 2 4 2
v 2 4 -2
v -1.9 0 2
v -1.9 4 2
v 2 0 2
v 2 4 2
v -2 0 1.9
v -2 4 1.9
v -1.9 0 1.9
v -1.9 4 1.9
v 1.8 2.1 1.5
v 1.8 2.8 1.5
v 1.9 2.1 1.5
v 1.9 2.8 1.5
v -1.8 2.8 0.9
v -1.8 3.2 0.9
v -1.7 2.8 0.9
v -1.7 3.2 0.9
v -1.8 1.6 0.8
v -1.8 2.2 0.8
v -1.7 1.6 0.8
v -1.7 2.2 0.8
v 1.8 2.6 0.7
v 1.8 3 0.7
v 1.9 2.6 0.7
v 1.9 3 0.7
v 1.8 1.8 0.6
v 1.8 2.2 0.6
v 1.9 1.8 0.6
v 1.9 2.2 0.6
v 1.8 2.6 0.2
v 1.8 3.2 0.2
v 1.9 2.6 0.2
v 1.9 3.2 0.2
v 1.8 3.2 0.0999999
v 1.8 3.3 0.0999999
v 1.9 3.2 0.0999999
v 1.9 3.3 0.0999999
v 1.8 1.5 -0.3
v 1.8 2 -0.3
v 1.9 1.5 -0.3
v 1.9 2 -0.3
v -1.8 1.9 -0.5
v -1.8 2.2 -0.5
v -1.7 1.9 -0.5
v -1.7 2.2 -0.5
v -1.8 2.3 -0.6
v -1.8 2.7 -0.6
v -1.6 2.3 -0.6
v -1.6 2.7 -0.6
v 1.8 2.7 -0.9
v 1.8 3.2 -0.9
v 1.9 2.7 -0.9
v 1.9 3.2 -0.9
v -1 2.4 -1.8
v -1 2.8 -1.8
v -0.8 1.6 -1.8
v -0.8 2.1 -1.8
v -0.5 3.1 -1.8
v -0.5 3.3 -1.8
v -0.3 1.6 -1.8
v -0.3 2.1 -1.8
v -0.3 3.1 -1.8
v -0.3 3.3 -1.8
v 0.1 2.4 -1.8
v 0.1 2.8 -1.8
v 0.1 3.1 -1.8
v 0.1 3.4 -1.8
v 0.5 2 -1.8
v 0.5 2.2 -1.8
v 0.7 2 -1.8
v 0.7 2.2 -1.8
v 0.7 3.1 -1.8
v 0.7 3.4 -1.8
v 0.9 2.5 -1.8
v 0.9 2.8 -1.8
v 1.3 2.5 -1.8
v 1.3 2.8 -1.8
v -1.8 0 -1.9
v -1.8 3.9 -1.9
v -1 2.4 -1.9
v -1 2.8 -1.9
v -0.8 1.6 -1.9
v -0.8 2.1 -1.9
v -0.5 3.1 -1.9
v -0.5 3.3 -1.9
v -0.3 1.6 -1.9
v -0.3 2.1 -1.9
v -0.3 3.1 -1.9
v -0.3 3.3 -1.9
v 0.1 2.4 -1.9
v 0.1 2.8 -1.9
v 0.1 3.1 -1.9
v 0.1 3.4 -1.9
v 0.5 2 -1.9
v 0.5 2.2 -1.9
v 0.7 2 -1.9
v 0.7 2.2 -1.9
v 0.7 3.1 -1.9
v 0.7 3.4 -1.9
v 0.9 2.5 -1.9
v 0.9 2.8 -1.9
v 1.3 2.5 -1.9
v 1.3 2.8 -1.9
v 1.9 0.1 -1.9
v 1.9 3.9 -1.9
v 2 0 -1.9
v 2 0.1 -1.9
v -1.8 0 1.9
v -1.8 3.9 1.9
v -0.9 2.7 1.9
v -0.9 3.3 1.9
v -0.7 1.7 1.9
v -0.7 2.3 1.9
v -0.5 0.8 1.9
v -0.5 1 1.9
v -0.0999999 2.7 1.9
v -0.0999999 3.3 1.9
v 2.38419e-07 0.8 1.9
v 2.38419e-07 1 1.9
v 2.38419e-07 1.7 1.9
v 2.38419e-07 1.9 1.9
v 2.38419e-07 2.3 1.9
v 2.38419e-07 2.4 1.9
v 0.4 2.5 1.9
v 0.4 3.1 1.9
v 0.8 1.9 1.9
v 0.8 2.4 1.9
v 0.8 2.5 1.9
v 0.8 3.1 1.9
v 0.9 1.2 1.9
v 0.9 1.4 1.9
v 1.1 1.2 1.9
v 1.1 1.4 1.9
v 1.9 0.1 1.9
v 1.9 3.9 1.9
v 2 0 1.9
v 2 0.1 1.9
v -0.9 2.7 1.8
v -0.9 3.3 1.8
v -0.7 1.7 1.8
v -0.7 2.3 1.8
v -0.5 0.8 1.8
v -0.5 1 1.8
v -0.0999999 2.7 1.8
v -0.0999999 3.3 1.8
v 2.38419e-07 0.8 1.8
v 2.38419e-07 1 1.8
v 2.38419e-07 1.7 1.8
v 2.38419e-07 1.9 1.8
v 2.38419e-07 2.3 1.8
v 2.38419e-07 2.4 1.8
v 0.4 2.5 1.8
v 0.4 3.1 1.8
v 0.8 1.9 1.8
v 0.8 2.4 1.8
v 0.8 2.5 1.8
v 0.8 3.1 1.8
v 0.9 1.2 1.8
v 0.9 1.4 1.8
v 1.1 1.2 1.8
v 1.1 1.4 1.8
v 1.8 2.1 0.9
v 1.8 2.8 0.9
v 1.9 2.1 0.9
v 1.9 2.8 0.9
v 1.8 2.6 0.4
v 1.8 3 0.4
v 1.9 2.6 0.4
v 1.9 3 0.4
v -1.8 2.8 0.3
v -1.8 3.2 0.3
v -1.7 2.8 0.3
v -1.7 3.2 0.3
v 1.8 1.8 0.0999999
v 1.8 2.2 0.0999999
v 1.9 1.8 0.0999999
v 1.9 2.2 0.0999999
v -1.8 1.6 -2.38419e-07
v -1.8 2.2 -2.38419e-07
v -1.7 1.6 -2.38419e-07
v -1.7 2.2 -2.38419e-07
v 1.8 3.2 -0.1
v 1.8 3.3 -0.1
v 1.9 3.2 -0.1
v 1.9 3.3 -0.1
v 1.8 3 -0.3
v 1.8 3.2 -0.3
v 1.9 3 -0.3
v 1.9 3.2 -0.3
v 1.8 2.6 -0.6
v 1.8 3 -0.6
v 1.9 2.6 -0.6
v 1.9 3 -0.6
v -1.8 1.9 -0.9
v -1.8 2.2 -0.9
v -1.7 1.9 -0.9
v -1.7 2.2 -0.9
v -1.8 2.3 -1
v -1.8 2.7 -1
v -1.6 2.3 -1
v -1.6 2.7 -1
v 1.8 1.5 -1
v 1.8 2 -1
v 1.9 1.5 -1
v 1.9 2 -1
v 1.8 2.7 -1.4
v 1.8 3.2 -1.4
v 1.9 2.7 -1.4
v 1.9 3.2 -1.4
v -2 0 -2
v -2 4 -2
v 2 0 -2
v 2 4 -2
v -1.9 0 2
v 2 0 2
v -2 0 1.9
v -1.9 0 1.9
v -1.8 0 1.9
v 2 0 1.9
v -1.8 0 -1.9
v 2 0 -1.9
v -2 0 -2
v 2 0 -2
v 1.9 0.1 1.9
v 2 0.1 1.9
v 1.9 0.1 -1.9
v 2 0.1 -1.9
v -0.5 0.8 1.9
v 2.38419e-07 0.8 1.9
v -0.5 0.8 1.8
v 2.38419e-07 0.8 1.8
v 0.9 1.2 1.9
v 1.1 1.2 1.9
v 0.9 1.2 1.8
v 1.1 1.2 1.8
v 1.8 1.5 -0.3
v 1.9 1.5 -0.3
v 1.8 1.5 -1
v 1.9 1.5 -1
v -1.8 1.6 0.8
v -1.7 1.6 0.8
v -1.8 1.6 -2.38419e-07
v -1.7 1.6 -2.38419e-07
v -0.8 1.6 -1.8
v -0.3 1.6 -1.8
v -0.8 1.6 -1.9
v -0.3 1.6 -1.9
v -0.7 1.7 1.9
v 2.38419e-07 1.7 1.9
v -0.7 1.7 1.8
v 2.38419e-07 1.7 1.8
v 1.8 1.8 0.6
v 1.9 1.8 0.6
v 1.8 1.8 0.0999999
v 1.9 1.8 0.0999999
v 2.38419e-07 1.9 1.9
v 0.8 1.9 1.9
v 2.38419e-07 1.9 1.8
v 0.8 1.9 1.8
v -1.8 1.9 -0.5
v -1.7 1.9 -0.5
v -1.8 1.9 -0.9
v -1.7 1.9 -0.9
v 0.5 2 -1.8
v 0.7 2 -1.8
v 0.5 2 -1.9
v 0.7 2 -1.9
v 1.8 2.1 1.5
v 1.9 2.1 1.5
v 1.8 2.1 0.9
v 1.9 2.1 0.9
v -1.8 2.3 -0.6
v -1.6 2.3 -0.6
v -1.8 2.3 -1
v -1.6 2.3 -1
v -1 2.4 -1.8
v 0.1 2.4 -1.8
v -1 2.4 -1.9
v 0.1 2.4 -1.9
v 0.4 2.5 1.9
v 0.8 2.5 1.9
v 0.4 2.5 1.8
v 0.8 2.5 1.8
v 0.9 2.5 -1.8
v 1.3 2.5 -1.8
v 0.9 2.5 -1.9
v 1.3 2.5 -1.9
v 1.8 2.6 0.7
v 1.9 2.6 0.7
v 1.8 2.6 0.4
v 1.9 2.6 0.4
v 1.8 2.6 0.2
v 1.9 2.6 0.2
v 1.8 2.6 -0.6
v 1.9 2.6 -0.6
v -0.9 2.7 1.9
v -0.0999999 2.7 1.9
v -0.9 2.7 1.8
v -0.0999999 2.7 1.8
v 1.8 2.7 -0.9
v 1.9 2.7 -0.9
v 1.8 2.7 -1.4
v 1.9 2.7 -1.4
v -1.8 2.8 0.9
v -1.7 2.8 0.9
v -1.8 2.8 0.3
v -1.7 2.8 0.3
v -0.5 3.1 -1.8
v -0.3 3.1 -1.8
v 0.1 3.1 -1.8
v 0.7 3.1 -1.8
v -0.5 3.1 -1.9
v -0.3 3.1 -1.9
v 0.1 3.1 -1.9
v 0.7 3.1 -1.9
v -1.8 3.9 1.9
v 1.9 3.9 1.9
v -1.8 3.9 -1.9
v 1.9 3.9 -1.9
v -0.5 1 1.9
v 2.38419e-07 1 1.9
v -0.5 1 1.8
v 2.38419e-07 1 1.8
v 0.9 1.4 1.9
v 1.1 1.4 1.9
v 0.9 1.4 1.8
v 1.1 1.4 1.8
v 1.8 2 -0.3
v 1.9 2 -0.3
v 1.8 2 -1
v 1.9 2 -1
v -0.8 2.1 -1.8
v -0.3 2.1 -1.8
v -0.8 2.1 -1.9
v -0.3 2.1 -1.9
v -1.8 2.2 0.8
v -1.7 2.2 0.8
v 1.8 2.2 0.6
v 1.9 2.2 0.6
v 1.8 2.2 0.0999999
v 1.9 2.2 0.0999999
v -1.8 2.2 -2.38419e-07
v -1.7 2.2 -2.38419e-07
v -1.8 2.2 -0.5
v -1.7 2.2 -0.5
v -1.8 2.2 -0.9
v -1.7 2.2 -0.9
v 0.5 2.2 -1.8
v 0.7 2.2 -1.8
v 0.5 2.2 -1.9
v 0.7 2.2 -1.9
v -0.7 2.3 1.9
v 2.38419e-07 2.3 1.9
v -0.7 2.3 1.8
v 2.38419e-07 2.3 1.8
v 2.38419e-07 2.4 1.9
v 0.8 2.4 1.9
v 2.38419e-07 2.4 1.8
v 0.8 2.4 1.8
v -1.8 2.7 -0.6
v -1.6 2.7 -0.6
v -1.8 2.7 -1
v -1.6 2.7 -1
v 1.8 2.8 1.5
v 1.9 2.8 1.5
v 1.8 2.8 0.9
v 1.9 2.8 0.9
v -1 2.8 -1.8
v 0.1 2.8 -1.8
v 0.9 2.8 -1.8
v 1.3 2.8 -1.8
v -1 2.8 -1.9
v 0.1 2.8 -1.9
v 0.9 2.8 -1.9
v 1.3 2.8 -1.9
v 1.8 3 0.7
v 1.9 3 0.7
v 1.8 3 0.4
v 1.9 3 0.4
v 1.8 3 -0.3
v 1.9 3 -0.3
v 1.8 3 -0.6
v 1.9 3 -0.6
v 0.4 3.1 1.9
v 0.8 3.1 1.9
v 0.4 3.1 1.8
v 0.8 3.1 1.8
v -1.8 3.2 0.9
v -1.7 3.2 0.9
v -1.8 3.2 0.3
v -1.7 3.2 0.3
v 1.8 3.2 0.2
v 1.9 3.2 0.2
v 1.8 3.2 0.0999999
v 1.9 3.2 0.0999999
v 1.8 3.2 -0.1
v 1.9 3.2 -0.1
v 1.8 3.2 -0.3
v 1.9 3.2 -0.3
v 1.8 3.2 -0.9
v 1.9 3.2 -0.9
v 1.8 3.2 -1.4
v 1.9 3.2 -1.4
v -0.9 3.3 1.9
v -0.0999999 3.3 1.9
v -0.9 3.3 1.8
v -0.0999999 3.3 1.8
v 1.8 3.3 0.0999999
v 1.9 3.3 0.0999999
v 1.8 3.3 -0.1
v 1.9 3.3 -0.1
v -0.5 3.3 -1.8
v -0.3 3.3 -1.8
v -0.5 3.3 -1.9
v -0.3 3.3 -1.9
v 0.1 3.4 -1.8
v 0.7 3.4 -1.8
v 0.1 3.4 -1.9
v 0.7 3.4 -1.9
v -1.9 4 2
v 2 4 2
v -2 4 1.9
v -1.9 4 1.9
v -1.8 4 1.9
v 1.9 4 1.9
v -1.8 4 -1.9
v 1.9 4 -1.9
v -2 4 -2
v 2 4 -2

# faces
f 3/1/1 2/1/1 1/1/1
f 4/1/1 2/1/1 3/1/1
f 7/1/1 6/1/1 5/1/1
f 8/1/1 6/1/1 7/1/1
f 11/2/1 10/2/1 9/2/1
f 12/2/1 10/2/1 11/2/1
f 15/2/1 14/2/1 13/2/1
f 16/2/1 14/2/1 15/2/1
f 19/2/1 18/2/1 17/2/1
f 20/2/1 18/2/1 19/2/1
f 23/2/1 22/2/1 21/2/1
f 24/2/1 22/2/1 23/2/1
f 27/2/1 26/2/1 25/2/1
f 28/2/1 26/2/1 27/2/1
f 31/2/1 30/2/1 29/2/1
f 32/2/1 30/2/1 31/2/1
f 35/2/1 34/2/1 33/2/1
f 36/2/1 34/2/1 35/2/1
f 39/2/1 38/2/1 37/2/1
f 40/2/1 38/2/1 39/2/1
f 43/2/1 42/2/1 41/2/1
f 44/2/1 42/2/1 43/2/1
f 47/2/1 46/2/1 45/2/1
f 48/2/1 46/2/1 47/2/1
f 51/2/1 50/2/1 49/2/1
f 52/2/1 50/2/1 51/2/1
f 55/2/1 54/2/1 53/2/1
f 56/2/1 54/2/1 55/2/1
f 61/2/1 58/2/1 57/2/1
f 62/2/1 58/2/1 61/2/1
f 65/2/1 60/2/1 59/2/1
f 66/2/1 60/2/1 65/2/1
f 73/2/1 64/2/1 63/2/1
f 74/2/1 64/2/1 73/2/1
f 75/2/1 68/2/1 67/2/1
f 76/2/1 68/2/1 75/2/1
f 77/2/1 70/2/1 69/2/1
f 78/2/1 70/2/1 77/2/1
f 79/2/1 77/2/1 69/2/1
f 80/2/1 77/2/1 79/2/1
f 81/2/1 77/2/1 80/2/1
f 82/2/1 77/2/1 81/2/1
f 83/2/1 72/2/1 71/2/1
f 84/2/1 72/2/1 83/2/1
f 85/2/1 81/2/1 80/2/1
f 86/2/1 81/2/1 85/2/1
f 89/1/1 88/1/1 87/1/1
f 90/1/1 88/1/1 89/1/1
f 91/1/1 89/1/1 87/1/1
f 92/1/1 89/1/1 91/1/1
f 93/1/1 89/1/1 92/1/1
f 94/1/1 88/1/1 90/1/1
f 95/1/1 91/1/1 87/1/1
f 96/1/1 91/1/1 95/1/1
f 97/1/1 91/1/1 96/1/1
f 98/1/1 93/1/1 92/1/1
f 98/1/1 94/1/1 93/1/1
f 99/1/1 97/1/1 96/1/1
f 99/1/1 98/1/1 97/1/1
f 100/1/1 98/1/1 99/1/1
f 101/1/1 98/1/1 100/1/1
f 102/1/1 94/1/1 98/1/1
f 102/1/1 98/1/1 101/1/1
f 103/1/1 94/1/1 102/1/1
f 104/1/1 88/1/1 94/1/1
f 104/1/1 94/1/1 103/1/1
f 105/1/1 95/1/1 87/1/1
f 106/1/1 99/1/1 96/1/1
f 107/1/1 99/1/1 106/1/1
f 107/1/1 106/1/1 105/1/1
f 108/1/1 101/1/1 100/1/1
f 110/1/1 103/1/1 102/1/1
f 111/1/1 108/1/1 107/1/1
f 111/1/1 101/1/1 108/1/1
f 114/1/1 110/1/1 109/1/1
f 115/1/1 103/1/1 110/1/1
f 115/1/1 110/1/1 114/1/1
f 116/1/1 88/1/1 104/1/1
f 117/1/1 112/1/1 111/1/1
f 118/1/1 115/1/1 114/1/1
f 118/1/1 116/1/1 115/1/1
f 118/1/1 114/1/1 113/1/1
f 119/1/1 107/1/1 105/1/1
f 119/1/1 118/1/1 117/1/1
f 119/1/1 117/1/1 111/1/1
f 119/1/1 105/1/1 87/1/1
f 119/1/1 111/1/1 107/1/1
f 120/1/1 116/1/1 118/1/1
f 120/1/1 118/1/1 119/1/1
f 120/1/1 88/1/1 116/1/1
f 121/1/2 122/1/2 123/1/2
f 123/1/2 122/1/2 124/1/2
f 124/1/2 122/1/2 125/1/2
f 125/1/2 122/1/2 126/1/2
f 121/1/2 123/1/2 127/1/2
f 124/1/2 125/1/2 128/1/2
f 128/1/2 125/1/2 129/1/2
f 126/1/2 122/1/2 130/1/2
f 128/1/2 129/1/2 131/1/2
f 129/1/2 130/1/2 131/1/2
f 127/1/2 128/1/2 131/1/2
f 130/1/2 122/1/2 132/1/2
f 131/1/2 130/1/2 132/1/2
f 127/1/2 131/1/2 133/1/2
f 132/1/2 122/1/2 134/1/2
f 127/1/2 133/1/2 135/1/2
f 133/1/2 134/1/2 135/1/2
f 121/1/2 127/1/2 135/1/2
f 135/1/2 134/1/2 136/1/2
f 121/1/2 135/1/2 137/1/2
f 136/1/2 134/1/2 138/1/2
f 121/1/2 137/1/2 139/1/2
f 137/1/2 138/1/2 139/1/2
f 134/1/2 122/1/2 140/1/2
f 139/1/2 138/1/2 140/1/2
f 138/1/2 134/1/2 140/1/2
f 141/2/2 142/2/2 145/2/2
f 145/2/2 142/2/2 146/2/2
f 143/2/2 144/2/2 147/2/2
f 147/2/2 144/2/2 148/2/2
f 149/2/2 150/2/2 151/2/2
f 151/2/2 150/2/2 152/2/2
f 153/2/2 154/2/2 155/2/2
f 155/2/2 154/2/2 156/2/2
f 157/2/2 158/2/2 159/2/2
f 159/2/2 158/2/2 160/2/2
f 161/2/2 162/2/2 163/2/2
f 163/2/2 162/2/2 164/2/2
f 165/2/2 166/2/2 167/2/2
f 167/2/2 166/2/2 168/2/2
f 169/2/2 170/2/2 171/2/2
f 171/2/2 170/2/2 172/2/2
f 173/2/2 174/2/2 175/2/2
f 175/2/2 174/2/2 176/2/2
f 177/2/2 178/2/2 179/2/2
f 179/2/2 178/2/2 180/2/2
f 181/2/2 182/2/2 183/2/2
f 183/2/2 182/2/2 184/2/2
f 185/2/2 186/2/2 187/2/2
f 187/2/2 186/2/2 188/2/2
f 189/2/2 190/2/2 191/2/2
f 191/2/2 190/2/2 192/2/2
f 193/2/2 194/2/2 195/2/2
f 195/2/2 194/2/2 196/2/2
f 197/2/2 198/2/2 199/2/2
f 199/2/2 198/2/2 200/2/2
f 201/2/2 202/2/2 203/2/2
f 203/2/2 202/2/2 204/2/2
f 205/1/2 206/1/2 209/1/2
f 207/1/2 208/1/2 210/1/2
f 205/1/2 209/1/2 211/1/2
f 209/1/2 210/1/2 211/1/2
f 210/1/2 208/1/2 212/1/2
f 211/1/2 210/1/2 212/1/2
f 215/1/3 214/1/3 213/1/3
f 216/1/3 214/1/3 215/1/3
f 219/1/3 218/1/3 217/1/3
f 220/1/3 218/1/3 219/1/3
f 223/2/3 222/2/3 221/2/3
f 224/2/3 222/2/3 223/2/3
f 227/2/3 226/2/3 225/2/3
f 228/2/3 226/2/3 227/2/3
f 231/2/3 230/2/3 229/2/3
f 232/2/3 230/2/3 231/2/3
f 235/2/3 234/2/3 233/2/3
f 236/2/3 234/2/3 235/2/3
f 239/2/3 238/2/3 237/2/3
f 240/2/3 238/2/3 239/2/3
f 243/2/3 242/2/3 241/2/3
f 244/2/3 242/2/3 243/2/3
f 247/2/3 246/2/3 245/2/3
f 248/2/3 246/2/3 247/2/3
f 251/2/3 250/2/3 249/2/3
f 252/2/3 250/2/3 251/2/3
f 255/2/3 254/2/3 253/2/3
f 256/2/3 254/2/3 255/2/3
f 259/2/3 258/2/3 257/2/3
f 260/2/3 258/2/3 259/2/3
f 263/2/3 262/2/3 261/2/3
f 264/2/3 262/2/3 263/2/3
f 271/2/3 268/2/3 267/2/3
f 272/2/3 268/2/3 271/2/3
f 273/2/3 270/2/3 269/2/3
f 274/2/3 270/2/3 273/2/3
f 275/2/3 266/2/3 265/2/3
f 276/2/3 266/2/3 275/2/3
f 281/2/3 280/2/3 279/2/3
f 282/2/3 280/2/3 281/2/3
f 283/2/3 278/2/3 277/2/3
f 284/2/3 278/2/3 283/2/3
f 287/2/3 286/2/3 285/2/3
f 288/2/3 286/2/3 287/2/3
f 291/1/3 290/1/3 289/1/3
f 292/1/3 290/1/3 291/1/3
f 293/1/3 291/1/3 289/1/3
f 294/1/3 291/1/3 293/1/3
f 295/1/3 290/1/3 292/1/3
f 296/1/3 290/1/3 295/1/3
f 297/1/3 293/1/3 289/1/3
f 298/1/3 291/1/3 294/1/3
f 299/1/3 295/1/3 292/1/3
f 300/1/3 290/1/3 296/1/3
f 301/1/3 298/1/3 297/1/3
f 301/1/3 291/1/3 298/1/3
f 302/1/3 299/1/3 292/1/3
f 302/1/3 300/1/3 299/1/3
f 303/1/3 300/1/3 302/1/3
f 304/1/3 290/1/3 300/1/3
f 304/1/3 300/1/3 303/1/3
f 305/1/3 301/1/3 297/1/3
f 305/1/3 303/1/3 302/1/3
f 305/1/3 302/1/3 301/1/3
f 306/1/3 303/1/3 305/1/3
f 307/1/3 305/1/3 297/1/3
f 308/1/3 303/1/3 306/1/3
f 309/1/3 303/1/3 308/1/3
f 310/1/3 290/1/3 304/1/3
f 311/1/3 309/1/3 308/1/3
f 311/1/3 310/1/3 309/1/3
f 311/1/3 308/1/3 307/1/3
f 312/1/3 310/1/3 311/1/3
f 313/1/3 311/1/3 307/1/3
f 314/1/3 310/1/3 312/1/3
f 315/1/3 297/1/3 289/1/3
f 315/1/3 314/1/3 313/1/3
f 315/1/3 307/1/3 297/1/3
f 315/1/3 313/1/3 307/1/3
f 316/1/3 310/1/3 314/1/3
f 316/1/3 314/1/3 315/1/3
f 316/1/3 290/1/3 310/1/3
f 317/1/3 315/1/3 289/1/3
f 318/1/3 315/1/3 317/1/3
f 319/1/4 320/1/4 321/1/4
f 321/1/4 320/1/4 322/1/4
f 319/1/4 321/1/4 323/1/4
f 323/1/4 321/1/4 324/1/4
f 319/1/4 323/1/4 325/1/4
f 325/1/4 323/1/4 326/1/4
f 324/1/4 321/1/4 327/1/4
f 322/1/4 320/1/4 328/1/4
f 319/1/4 325/1/4 329/1/4
f 326/1/4 323/1/4 330/1/4
f 330/1/4 323/1/4 331/1/4
f 324/1/4 327/1/4 333/1/4
f 327/1/4 328/1/4 333/1/4
f 333/1/4 328/1/4 334/1/4
f 334/1/4 328/1/4 335/1/4
f 335/1/4 328/1/4 336/1/4
f 331/1/4 332/1/4 337/1/4
f 330/1/4 331/1/4 337/1/4
f 329/1/4 330/1/4 337/1/4
f 334/1/4 335/1/4 338/1/4
f 338/1/4 335/1/4 339/1/4
f 336/1/4 328/1/4 340/1/4
f 338/1/4 339/1/4 341/1/4
f 339/1/4 340/1/4 341/1/4
f 329/1/4 337/1/4 341/1/4
f 337/1/4 338/1/4 341/1/4
f 341/1/4 340/1/4 342/1/4
f 329/1/4 341/1/4 343/1/4
f 342/1/4 340/1/4 344/1/4
f 319/1/4 329/1/4 345/1/4
f 343/1/4 344/1/4 345/1/4
f 329/1/4 343/1/4 345/1/4
f 340/1/4 328/1/4 346/1/4
f 345/1/4 344/1/4 346/1/4
f 344/1/4 340/1/4 346/1/4
f 328/1/4 320/1/4 346/1/4
f 319/1/4 345/1/4 347/1/4
f 347/1/4 345/1/4 348/1/4
f 349/2/4 350/2/4 355/2/4
f 355/2/4 350/2/4 356/2/4
f 353/2/4 354/2/4 357/2/4
f 357/2/4 354/2/4 358/2/4
f 351/2/4 352/2/4 359/2/4
f 359/2/4 352/2/4 360/2/4
f 360/2/4 352/2/4 361/2/4
f 361/2/4 362/2/4 365/2/4
f 360/2/4 361/2/4 365/2/4
f 365/2/4 362/2/4 366/2/4
f 363/2/4 364/2/4 367/2/4
f 367/2/4 364/2/4 368/2/4
f 369/2/4 370/2/4 371/2/4
f 371/2/4 370/2/4 372/2/4
f 373/2/4 374/2/4 375/2/4
f 375/2/4 374/2/4 376/2/4
f 377/2/4 378/2/4 379/2/4
f 379/2/4 378/2/4 380/2/4
f 381/2/4 382/2/4 383/2/4
f 383/2/4 382/2/4 384/2/4
f 385/2/4 386/2/4 387/2/4
f 387/2/4 386/2/4 388/2/4
f 389/2/4 390/2/4 391/2/4
f 391/2/4 390/2/4 392/2/4
f 393/2/4 394/2/4 395/2/4
f 395/2/4 394/2/4 396/2/4
f 397/2/4 398/2/4 399/2/4
f 399/2/4 398/2/4 400/2/4
f 401/2/4 402/2/4 403/2/4
f 403/2/4 402/2/4 404/2/4
f 405/2/4 406/2/4 407/2/4
f 407/2/4 406/2/4 408/2/4
f 409/2/4 410/2/4 411/2/4
f 411/2/4 410/2/4 412/2/4
f 413/2/4 414/2/4 415/2/4
f 415/2/4 414/2/4 416/2/4
f 417/2/4 418/2/4 419/2/4
f 419/2/4 418/2/4 420/2/4
f 421/1/4 422/1/4 423/1/4
f 423/1/4 422/1/4 424/1/4
f 428/1/5 426/1/5 425/1/5
f 429/1/5 426/1/5 428/1/5
f 430/1/5 426/1/5 429/1/5
f 431/1/5 428/1/5 427/1/5
f 431/1/5 429/1/5 428/1/5
f 433/1/5 431/1/5 427/1/5
f 433/1/5 432/1/5 431/1/5
f 434/1/5 432/1/5 433/1/5
f 437/1/5 436/1/5 435/1/5
f 438/1/5 436/1/5 437/1/5
f 441/2/5 440/2/5 439/2/5
f 442/2/5 440/2/5 441/2/5
f 445/2/5 444/2/5 443/2/5
f 446/2/5 444/2/5 445/2/5
f 449/2/5 448/2/5 447/2/5
f 450/2/5 448/2/5 449/2/5
f 453/2/5 452/2/5 451/2/5
f 454/2/5 452/2/5 453/2/5
f 457/2/5 456/2/5 455/2/5
f 458/2/5 456/2/5 457/2/5
f 461/2/5 460/2/5 459/2/5
f 462/2/5 460/2/5 461/2/5
f 465/2/5 464/2/5 463/2/5
f 466/2/5 464/2/5 465/2/5
f 469/2/5 468/2/5 467/2/5
f 470/2/5 468/2/5 469/2/5
f 473/2/5 472/2/5 471/2/5
f 474/2/5 472/2/5 473/2/5
f 477/2/5 476/2/5 475/2/5
f 478/2/5 476/2/5 477/2/5
f 481/2/5 480/2/5 479/2/5
f 482/2/5 480/2/5 481/2/5
f 485/2/5 484/2/5 483/2/5
f 486/2/5 484/2/5 485/2/5
f 489/2/5 488/2/5 487/2/5
f 490/2/5 488/2/5 489/2/5
f 493/2/5 492/2/5 491/2/5
f 494/2/5 492/2/5 493/2/5
f 497/2/5 496/2/5 495/2/5
f 498/2/5 496/2/5 497/2/5
f 501/2/5 500/2/5 499/2/5
f 502/2/5 500/2/5 501/2/5
f 505/2/5 504/2/5 503/2/5
f 506/2/5 504/2/5 505/2/5
f 509/2/5 508/2/5 507/2/5
f 510/2/5 508/2/5 509/2/5
f 513/2/5 512/2/5 511/2/5
f 514/2/5 512/2/5 513/2/5
f 517/2/5 516/2/5 515/2/5
f 518/2/5 516/2/5 517/2/5
f 523/2/5 520/2/5 519/2/5
f 524/2/5 520/2/5 523/2/5
f 525/2/5 522/2/5 521/2/5
f 526/2/5 522/2/5 525/2/5
f 529/2/5 528/2/5 527/2/5
f 530/2/5 528/2/5 529/2/5
f 531/2/6 532/2/6 533/2/6
f 533/2/6 532/2/6 534/2/6
f 535/2/6 536/2/6 537/2/6
f 537/2/6 536/2/6 538/2/6
f 539/2/6 540/2/6 541/2/6
f 541/2/6 540/2/6 542/2/6
f 543/2/6 544/2/6 545/2/6
f 545/2/6 544/2/6 546/2/6
f 549/2/6 550/2/6 551/2/6
f 551/2/6 550/2/6 552/2/6
f 547/2/6 548/2/6 553/2/6
f 553/2/6 548/2/6 554/2/6
f 555/2/6 556/2/6 557/2/6
f 557/2/6 556/2/6 558/2/6
f 559/2/6 560/2/6 561/2/6
f 561/2/6 560/2/6 562/2/6
f 563/2/6 564/2/6 565/2/6
f 565/2/6 564/2/6 566/2/6
f 567/2/6 568/2/6 569/2/6
f 569/2/6 568/2/6 570/2/6
f 571/2/6 572/2/6 573/2/6
f 573/2/6 572/2/6 574/2/6
f 575/2/6 576/2/6 577/2/6
f 577/2/6 576/2/6 578/2/6
f 579/2/6 580/2/6 583/2/6
f 583/2/6 580/2/6 584/2/6
f 581/2/6 582/2/6 585/2/6
f 585/2/6 582/2/6 586/2/6
f 587/2/6 588/2/6 589/2/6
f 589/2/6 588/2/6 590/2/6
f 591/2/6 592/2/6 593/2/6
f 593/2/6 592/2/6 594/2/6
f 595/2/6 596/2/6 597/2/6
f 597/2/6 596/2/6 598/2/6
f 599/2/6 600/2/6 601/2/6
f 601/2/6 600/2/6 602/2/6
f 603/2/6 604/2/6 605/2/6
f 605/2/6 604/2/6 606/2/6
f 607/2/6 608/2/6 609/2/6
f 609/2/6 608/2/6 610/2/6
f 611/2/6 612/2/6 613/2/6
f 613/2/6 612/2/6 614/2/6
f 615/2/6 616/2/6 617/2/6
f 617/2/6 616/2/6 618/2/6
f 619/2/6 620/2/6 621/2/6
f 621/2/6 620/2/6 622/2/6
f 623/2/6 624/2/6 625/2/6
f 625/2/6 624/2/6 626/2/6
f 627/2/6 628/2/6 629/2/6
f 629/2/6 628/2/6 630/2/6
f 631/1/6 632/1/6 634/1/6
f 634/1/6 632/1/6 635/1/6
f 635/1/6 632/1/6 636/1/6
f 633/1/6 634/1/6 637/1/6
f 634/1/6 635/1/6 637/1/6
f 635/2/6 636/2/6 637/2/6
f 636/1/6 632/1/6 638/1/6
f 637/2/6 636/2/6 638/2/6
f 633/1/6 637/1/6 639/1/6
f 637/1/6 638/1/6 639/1/6
f 638/1/6 632/1/6 640/1/6
f 639/1/6 638/1/6 640/1/6
