# MagicaVoxel @ Ephtracy

# group
o 

# material
mtllib JuiceStand.mtl
usemtl palette

# normals
vn -1 0 0
vn 1 0 0
vn 0 0 1
vn 0 0 -1
vn 0 -1 0
vn 0 1 0

# texcoords
vt 0.373047 0.5
vt 0.533203 0.5
vt 0.986328 0.5

# verts
v -1.8 0.1 1.3
v -1.8 0.1 -0.9
v -1.8 0.1 -1.3
v -1.8 0.2 1.3
v -1.8 0.2 1.2
v -1.8 0.2 -0.9
v -1.8 0.2 -1.3
v -1.8 1 1.2
v -1.8 1 -0.6
v -1.8 3.7 -0.6
v -1.8 3.7 -0.9
v -0.9 0.7 0
v -0.9 0.7 -0.1
v -0.9 0.8 0
v -0.9 0.8 -0.1
v 0.9 0.7 0.9
v 0.9 0.7 -0.3
v 0.9 1 0.9
v 0.9 1 -0.3
v 1.6 0.9 -0.6
v 1.6 0.9 -0.9
v 1.6 1 -0.6
v 1.6 3.6 -0.6
v 1.6 3.6 -0.9
v -1.7 0.9 -0.6
v -1.7 0.9 -0.9
v -1.7 1 -0.6
v -1.7 3.6 -0.6
v -1.7 3.6 -0.9
v -1.1 0.7 0.9
v -1.1 0.7 -0.3
v -1.1 1 0.9
v -1.1 1 -0.3
v 0.8 0.7 0
v 0.8 0.7 -0.1
v 0.8 0.8 0
v 0.8 0.8 -0.1
v 1.7 0.1 1.3
v 1.7 0.1 -0.9
v 1.7 0.1 -1.3
v 1.7 0.2 1.3
v 1.7 0.2 1.2
v 1.7 0.2 -0.9
v 1.7 0.2 -1.3
v 1.7 1 1.2
v 1.7 1 -0.6
v 1.7 3.7 -0.6
v 1.7 3.7 -0.9
v -1.8 0.1 1.3
v -1.8 0.2 1.3
v 1.7 0.1 1.3
v 1.7 0.2 1.3
v -1.8 0.2 1.2
v -1.8 1 1.2
v 1.7 0.2 1.2
v 1.7 1 1.2
v -0.9 0.7 0
v -0.9 0.8 0
v 0.8 0.7 0
v 0.8 0.8 0
v -1.1 0.7 -0.3
v -1.1 1 -0.3
v 0.9 0.7 -0.3
v 0.9 1 -0.3
v -1.8 1 -0.6
v -1.8 3.7 -0.6
v -1.7 1 -0.6
v -1.7 3.6 -0.6
v 1.6 1 -0.6
v 1.6 3.6 -0.6
v 1.7 1 -0.6
v 1.7 3.7 -0.6
v -1.1 0.7 0.9
v -1.1 1 0.9
v 0.9 0.7 0.9
v 0.9 1 0.9
v -0.9 0.7 -0.1
v -0.9 0.8 -0.1
v 0.8 0.7 -0.1
v 0.8 0.8 -0.1
v -1.7 0.9 -0.6
v -1.7 1 -0.6
v 1.6 0.9 -0.6
v 1.6 1 -0.6
v -1.8 0.2 -0.9
v -1.8 3.7 -0.9
v -1.7 0.9 -0.9
v -1.7 3.6 -0.9
v 1.6 0.9 -0.9
v 1.6 3.6 -0.9
v 1.7 0.2 -0.9
v 1.7 3.7 -0.9
v -1.8 0.1 -1.3
v -1.8 0.2 -1.3
v 1.7 0.1 -1.3
v 1.7 0.2 -1.3
v -1.8 0.1 1.3
v 1.7 0.1 1.3
v -1.8 0.1 -0.9
v 1.7 0.1 -0.9
v -1.8 0.1 -1.3
v 1.7 0.1 -1.3
v -1.7 3.6 -0.6
v 1.6 3.6 -0.6
v -1.7 3.6 -0.9
v 1.6 3.6 -0.9
v -1.8 0.2 1.3
v 1.7 0.2 1.3
v -1.8 0.2 1.2
v 1.7 0.2 1.2
v -1.8 0.2 -0.9
v 1.7 0.2 -0.9
v -1.8 0.2 -1.3
v 1.7 0.2 -1.3
v -1.1 0.7 0.9
v 0.9 0.7 0.9
v -0.9 0.7 0
v 0.8 0.7 0
v -0.9 0.7 -0.1
v 0.8 0.7 -0.1
v -1.1 0.7 -0.3
v 0.9 0.7 -0.3
v -0.9 0.8 0
v 0.8 0.8 0
v -0.9 0.8 -0.1
v 0.8 0.8 -0.1
v -1.7 0.9 -0.6
v 1.6 0.9 -0.6
v -1.7 0.9 -0.9
v 1.6 0.9 -0.9
v -1.8 1 1.2
v 1.7 1 1.2
v -1.1 1 0.9
v 0.9 1 0.9
v -1.1 1 -0.3
v 0.9 1 -0.3
v -1.8 1 -0.6
v -1.7 1 -0.6
v 1.6 1 -0.6
v 1.7 1 -0.6
v -1.8 3.7 -0.6
v 1.7 3.7 -0.6
v -1.8 3.7 -0.9
v 1.7 3.7 -0.9

# faces
f 4/2/1 2/2/1 1/2/1
f 5/2/1 2/2/1 4/2/1
f 6/1/1 3/1/1 2/1/1
f 6/2/1 2/2/1 5/2/1
f 7/1/1 3/1/1 6/1/1
f 8/2/1 6/2/1 5/2/1
f 9/2/1 6/2/1 8/2/1
f 10/2/1 6/2/1 9/2/1
f 11/2/1 6/2/1 10/2/1
f 14/3/1 13/3/1 12/3/1
f 15/3/1 13/3/1 14/3/1
f 18/2/1 17/2/1 16/2/1
f 19/2/1 17/2/1 18/2/1
f 22/2/1 21/2/1 20/2/1
f 23/2/1 21/2/1 22/2/1
f 24/2/1 21/2/1 23/2/1
f 25/2/2 26/2/2 27/2/2
f 27/2/2 26/2/2 28/2/2
f 28/2/2 26/2/2 29/2/2
f 30/2/2 31/2/2 32/2/2
f 32/2/2 31/2/2 33/2/2
f 34/3/2 35/3/2 36/3/2
f 36/3/2 35/3/2 37/3/2
f 38/2/2 39/2/2 41/2/2
f 41/2/2 39/2/2 42/2/2
f 39/1/2 40/1/2 43/1/2
f 42/2/2 39/2/2 43/2/2
f 43/1/2 40/1/2 44/1/2
f 42/2/2 43/2/2 45/2/2
f 45/2/2 43/2/2 46/2/2
f 46/2/2 43/2/2 47/2/2
f 47/2/2 43/2/2 48/2/2
f 51/2/3 50/2/3 49/2/3
f 52/2/3 50/2/3 51/2/3
f 55/2/3 54/2/3 53/2/3
f 56/2/3 54/2/3 55/2/3
f 59/3/3 58/3/3 57/3/3
f 60/3/3 58/3/3 59/3/3
f 63/2/3 62/2/3 61/2/3
f 64/2/3 62/2/3 63/2/3
f 67/2/3 66/2/3 65/2/3
f 68/2/3 66/2/3 67/2/3
f 70/2/3 66/2/3 68/2/3
f 71/2/3 70/2/3 69/2/3
f 72/2/3 66/2/3 70/2/3
f 72/2/3 70/2/3 71/2/3
f 73/2/4 74/2/4 75/2/4
f 75/2/4 74/2/4 76/2/4
f 77/3/4 78/3/4 79/3/4
f 79/3/4 78/3/4 80/3/4
f 81/2/4 82/2/4 83/2/4
f 83/2/4 82/2/4 84/2/4
f 85/2/4 86/2/4 87/2/4
f 87/2/4 86/2/4 88/2/4
f 85/2/4 87/2/4 89/2/4
f 88/2/4 86/2/4 90/2/4
f 85/2/4 89/2/4 91/2/4
f 89/2/4 90/2/4 91/2/4
f 90/2/4 86/2/4 92/2/4
f 91/2/4 90/2/4 92/2/4
f 93/1/4 94/1/4 95/1/4
f 95/1/4 94/1/4 96/1/4
f 99/2/5 98/2/5 97/2/5
f 100/2/5 98/2/5 99/2/5
f 101/1/5 100/1/5 99/1/5
f 102/1/5 100/1/5 101/1/5
f 105/2/5 104/2/5 103/2/5
f 106/2/5 104/2/5 105/2/5
f 107/2/6 108/2/6 109/2/6
f 109/2/6 108/2/6 110/2/6
f 111/1/6 112/1/6 113/1/6
f 113/1/6 112/1/6 114/1/6
f 115/3/6 116/3/6 117/3/6
f 117/3/6 116/3/6 118/3/6
f 115/3/6 117/3/6 119/3/6
f 118/3/6 116/3/6 120/3/6
f 115/3/6 119/3/6 121/3/6
f 119/3/6 120/3/6 121/3/6
f 120/3/6 116/3/6 122/3/6
f 121/3/6 120/3/6 122/3/6
f 123/3/6 124/3/6 125/3/6
f 125/3/6 124/3/6 126/3/6
f 127/2/6 128/2/6 129/2/6
f 129/2/6 128/2/6 130/2/6
f 131/2/6 132/2/6 133/2/6
f 133/2/6 132/2/6 134/2/6
f 131/2/6 133/2/6 135/2/6
f 134/2/6 132/2/6 136/2/6
f 131/2/6 135/2/6 137/2/6
f 135/2/6 136/2/6 137/2/6
f 137/2/6 136/2/6 138/2/6
f 136/2/6 132/2/6 139/2/6
f 138/2/6 136/2/6 139/2/6
f 139/2/6 132/2/6 140/2/6
f 141/2/6 142/2/6 143/2/6
f 143/2/6 142/2/6 144/2/6
